<svg width="10" height="18" viewBox="0 0 10 18" fill="none" xmlns="http://www.w3.org/2000/svg">
<path d="M6.16667 6.92308V7.42308H6.66667H9.2716L8.32345 9.88461H6.66667H6.16667V10.3846V17.5H3.16667V10.3846V9.88461H2.66667H0.5V7.42308H2.66667H3.16667V6.92308V4.15385C3.16667 2.11773 4.75109 0.5 6.66667 0.5H8.83333V2.96154H8C7.94986 2.96154 7.89651 2.96112 7.84176 2.96069C7.7161 2.9597 7.58312 2.95865 7.4649 2.9625C7.29189 2.96813 7.09239 2.98464 6.90439 3.04504C6.70589 3.10882 6.50161 3.2278 6.35613 3.44489C6.2155 3.65477 6.16667 3.90177 6.16667 4.15385V6.92308Z" fill="#4F4F4F" stroke="#4F4F4F"/>
</svg>
