<svg width="14" height="14" viewBox="0 0 14 14" fill="none" xmlns="http://www.w3.org/2000/svg">
<path d="M7.11834 13C7.0786 13 7.03887 13 6.99886 12.9998C6.05821 13.0021 5.18906 12.9782 4.34382 12.9268C3.56888 12.8796 2.86152 12.6118 2.29808 12.1524C1.75442 11.7091 1.38316 11.1097 1.19465 10.3711C1.03058 9.72799 1.02188 9.09673 1.01355 8.48616C1.00751 8.04808 1.00128 7.52898 1 7.00108C1.00128 6.47099 1.00751 5.95188 1.01355 5.5138C1.02188 4.90333 1.03058 4.27207 1.19465 3.62891C1.38316 2.89026 1.75442 2.29086 2.29808 1.84756C2.86152 1.38815 3.56888 1.12036 4.34391 1.07321C5.18916 1.02185 6.05848 0.997861 7.00114 1.00015C7.94207 0.998135 8.81094 1.02185 9.65618 1.07321C10.4311 1.12036 11.1385 1.38815 11.7019 1.84756C12.2457 2.29086 12.6168 2.89026 12.8054 3.62891C12.9694 4.27198 12.9781 4.90333 12.9864 5.5138C12.9925 5.95188 12.9988 6.47099 13 6.99888V7.00108C12.9988 7.52898 12.9925 8.04808 12.9864 8.48616C12.9781 9.09664 12.9695 9.7279 12.8054 10.3711C12.6168 11.1097 12.2457 11.7091 11.7019 12.1524C11.1385 12.6118 10.4311 12.8796 9.65618 12.9268C8.84674 12.976 8.01522 13 7.11834 13ZM6.99886 12.0623C7.92421 12.0645 8.77386 12.0412 9.59924 11.991C10.1852 11.9554 10.6932 11.7652 11.1095 11.4258C11.4942 11.1121 11.7591 10.6792 11.8969 10.1392C12.0335 9.60393 12.0414 9.02916 12.049 8.47335C12.055 8.03819 12.0612 7.52275 12.0625 6.99998C12.0612 6.47712 12.055 5.96177 12.049 5.52662C12.0414 4.9708 12.0335 4.39603 11.8969 3.86063C11.7591 3.32065 11.4942 2.88779 11.1095 2.57404C10.6932 2.23474 10.1852 2.04459 9.59924 2.00897C8.77386 1.95871 7.92421 1.93555 7.00105 1.93756C6.07588 1.93536 5.22614 1.95871 4.40076 2.00897C3.8148 2.04459 3.30676 2.23474 2.89054 2.57404C2.50583 2.88779 2.24086 3.32065 2.10307 3.86063C1.96647 4.39603 1.95859 4.97071 1.95099 5.52662C1.94504 5.96214 1.93882 6.47786 1.93754 7.00108C1.93882 7.52202 1.94504 8.03783 1.95099 8.47335C1.95859 9.02916 1.96647 9.60393 2.10307 10.1392C2.24086 10.6792 2.50583 11.1121 2.89054 11.4258C3.30676 11.7651 3.8148 11.9553 4.40076 11.9909C5.22614 12.0412 6.07606 12.0646 6.99886 12.0623ZM6.97652 9.92968C5.3611 9.92968 4.04672 8.61544 4.04672 6.99998C4.04672 5.38453 5.3611 4.07029 6.97652 4.07029C8.59203 4.07029 9.90631 5.38453 9.90631 6.99998C9.90631 8.61544 8.59203 9.92968 6.97652 9.92968ZM6.97652 5.00779C5.87802 5.00779 4.98425 5.90153 4.98425 6.99998C4.98425 8.09844 5.87802 8.99218 6.97652 8.99218C8.0751 8.99218 8.96878 8.09844 8.96878 6.99998C8.96878 5.90153 8.0751 5.00779 6.97652 5.00779ZM10.2345 3.13278C9.84616 3.13278 9.5313 3.44754 9.5313 3.83591C9.5313 4.22428 9.84616 4.53904 10.2345 4.53904C10.6228 4.53904 10.9376 4.22428 10.9376 3.83591C10.9376 3.44754 10.6228 3.13278 10.2345 3.13278Z" fill="#4F4F4F" stroke="#4F4F4F" stroke-width="0.8"/>
</svg>
