<svg width="12" height="12" viewBox="0 0 12 12" fill="none" xmlns="http://www.w3.org/2000/svg">
<mask id="path-1-inside-1" fill="white">
<path fill-rule="evenodd" clip-rule="evenodd" d="M2.625 1.3125C2.625 2.03737 2.03737 2.625 1.3125 2.625C0.587626 2.625 0 2.03737 0 1.3125C0 0.587626 0.587626 0 1.3125 0C2.03737 0 2.625 0.587626 2.625 1.3125ZM2.6835 3.75H0V12H2.6835V3.75ZM9.993 3.84675L9.96484 3.83758L9.96482 3.83758C9.94616 3.83141 9.9275 3.82525 9.9075 3.81975C9.8715 3.8115 9.8355 3.80475 9.79875 3.79875C9.65625 3.77025 9.50025 3.75 9.31725 3.75C7.75275 3.75 6.7605 4.88775 6.4335 5.32725V3.75H3.75V12H6.4335V7.5C6.4335 7.5 8.4615 4.6755 9.31725 6.75V12H12V6.43275C12 5.18625 11.1458 4.1475 9.993 3.84675Z"/>
</mask>
<path fill-rule="evenodd" clip-rule="evenodd" d="M2.625 1.3125C2.625 2.03737 2.03737 2.625 1.3125 2.625C0.587626 2.625 0 2.03737 0 1.3125C0 0.587626 0.587626 0 1.3125 0C2.03737 0 2.625 0.587626 2.625 1.3125ZM2.6835 3.75H0V12H2.6835V3.75ZM9.993 3.84675L9.96484 3.83758L9.96482 3.83758C9.94616 3.83141 9.9275 3.82525 9.9075 3.81975C9.8715 3.8115 9.8355 3.80475 9.79875 3.79875C9.65625 3.77025 9.50025 3.75 9.31725 3.75C7.75275 3.75 6.7605 4.88775 6.4335 5.32725V3.75H3.75V12H6.4335V7.5C6.4335 7.5 8.4615 4.6755 9.31725 6.75V12H12V6.43275C12 5.18625 11.1458 4.1475 9.993 3.84675Z" fill="#4F4F4F"/>
<path d="M0 3.75V2.75H-1V3.75H0ZM2.6835 3.75H3.6835V2.75H2.6835V3.75ZM0 12H-1V13H0V12ZM2.6835 12V13H3.6835V12H2.6835ZM9.96484 3.83758L9.61371 4.77391L9.63437 4.78166L9.65536 4.78849L9.96484 3.83758ZM9.993 3.84675L9.68352 4.79766L9.71179 4.80686L9.74055 4.81436L9.993 3.84675ZM9.96482 3.83758L10.3159 2.90125L10.2974 2.89428L10.2785 2.88805L9.96482 3.83758ZM9.9075 3.81975L10.1727 2.85555L10.1519 2.84983L10.1309 2.84502L9.9075 3.81975ZM9.79875 3.79875L9.60263 4.77933L9.62007 4.78282L9.63762 4.78568L9.79875 3.79875ZM6.4335 5.32725H5.4335V8.34653L7.23579 5.92418L6.4335 5.32725ZM6.4335 3.75H7.4335V2.75H6.4335V3.75ZM3.75 3.75V2.75H2.75V3.75H3.75ZM3.75 12H2.75V13H3.75V12ZM6.4335 12V13H7.4335V12H6.4335ZM6.4335 7.5L5.6212 6.91676L5.4335 7.17818V7.5H6.4335ZM9.31725 6.75H10.3173V6.55184L10.2417 6.36866L9.31725 6.75ZM9.31725 12H8.31725V13H9.31725V12ZM12 12V13H13V12H12ZM1.3125 3.625C2.58966 3.625 3.625 2.58966 3.625 1.3125H1.625C1.625 1.48509 1.48509 1.625 1.3125 1.625V3.625ZM-1 1.3125C-1 2.58966 0.0353416 3.625 1.3125 3.625V1.625C1.13991 1.625 1 1.48509 1 1.3125H-1ZM1.3125 -1C0.0353415 -1 -1 0.0353415 -1 1.3125H1C1 1.13991 1.13991 1 1.3125 1V-1ZM3.625 1.3125C3.625 0.0353416 2.58966 -1 1.3125 -1V1C1.48509 1 1.625 1.13991 1.625 1.3125H3.625ZM0 4.75H2.6835V2.75H0V4.75ZM1 12V3.75H-1V12H1ZM2.6835 11H0V13H2.6835V11ZM1.6835 3.75V12H3.6835V3.75H1.6835ZM9.65536 4.78849L9.68352 4.79766L10.3025 2.89584L10.2743 2.88668L9.65536 4.78849ZM9.6137 4.77391L9.61371 4.77391L10.316 2.90125L10.3159 2.90125L9.6137 4.77391ZM9.64233 4.78395C9.637 4.78249 9.6342 4.78158 9.63554 4.782C9.63623 4.78222 9.63765 4.78267 9.6403 4.78354C9.64315 4.78447 9.64623 4.78549 9.65116 4.78711L10.2785 2.88805C10.2629 2.88288 10.2208 2.86879 10.1727 2.85555L9.64233 4.78395ZM9.63762 4.78568C9.65931 4.78923 9.67378 4.79211 9.68413 4.79448L10.1309 2.84502C10.0692 2.83089 10.0117 2.82028 9.95988 2.81182L9.63762 4.78568ZM9.31725 4.75C9.42274 4.75 9.51218 4.76124 9.60263 4.77933L9.99487 2.81817C9.80032 2.77926 9.57776 2.75 9.31725 2.75V4.75ZM7.23579 5.92418C7.52194 5.53958 8.25379 4.75 9.31725 4.75V2.75C7.25171 2.75 5.99906 4.23592 5.63121 4.73032L7.23579 5.92418ZM5.4335 3.75V5.32725H7.4335V3.75H5.4335ZM3.75 4.75H6.4335V2.75H3.75V4.75ZM4.75 12V3.75H2.75V12H4.75ZM6.4335 11H3.75V13H6.4335V11ZM5.4335 7.5V12H7.4335V7.5H5.4335ZM10.2417 6.36866C9.94297 5.64451 9.40474 5.06624 8.59206 4.99575C7.90962 4.93655 7.32452 5.27763 6.96605 5.53851C6.57358 5.82413 6.23746 6.17417 6.01143 6.43229C5.89512 6.56511 5.80051 6.6822 5.73404 6.76736C5.70069 6.81009 5.67411 6.84517 5.65509 6.87065C5.64558 6.8834 5.63793 6.89377 5.63226 6.90153C5.62942 6.90541 5.62707 6.90864 5.62522 6.91119C5.6243 6.91246 5.6235 6.91357 5.62283 6.9145C5.62249 6.91496 5.62219 6.91538 5.62192 6.91576C5.62178 6.91595 5.6216 6.9162 5.62153 6.9163C5.62136 6.91654 5.6212 6.91676 6.4335 7.5C7.2458 8.08324 7.24565 8.08344 7.24551 8.08364C7.24548 8.08369 7.24534 8.08388 7.24527 8.08398C7.24512 8.08419 7.245 8.08435 7.24491 8.08448C7.24473 8.08472 7.24467 8.08481 7.24473 8.08473C7.24484 8.08458 7.24541 8.08379 7.24643 8.08239C7.24848 8.07959 7.25233 8.07436 7.25788 8.06693C7.26899 8.05204 7.28681 8.02847 7.31059 7.99801C7.35836 7.93681 7.42888 7.84945 7.51606 7.74989C7.69703 7.54324 7.92139 7.31681 8.14289 7.15562C8.39838 6.96968 8.48074 6.9936 8.41923 6.98827C8.22748 6.97163 8.26366 6.81824 8.39281 7.13134L10.2417 6.36866ZM10.3173 12V6.75H8.31725V12H10.3173ZM12 11H9.31725V13H12V11ZM11 6.43275V12H13V6.43275H11ZM9.74055 4.81436C10.4701 5.0047 11 5.65876 11 6.43275H13C13 4.71374 11.8214 3.2903 10.2454 2.87914L9.74055 4.81436Z" fill="#4F4F4F" mask="url(#path-1-inside-1)"/>
</svg>
