<svg width="15" height="12" viewBox="0 0 15 12" fill="none" xmlns="http://www.w3.org/2000/svg">
<path d="M4.55939 8.8915C3.71578 8.87354 2.97282 8.45521 2.51235 7.82595C2.74533 7.81132 2.97448 7.77598 3.19372 7.71697L3.16247 6.744C2.23297 6.55678 1.48401 5.87617 1.21113 4.99542C1.45944 5.05746 1.71787 5.09378 1.98004 5.09868L3.70714 5.13095L2.2643 4.18114C1.57911 3.73008 1.12344 2.95329 1.12344 2.08246C1.12344 1.8713 1.15016 1.66657 1.20045 1.47008C2.78016 3.07279 4.94583 4.10263 7.35883 4.2185L8.0183 4.25017L7.87004 3.6068C7.82986 3.43243 7.81156 3.24068 7.81156 3.02862C7.81156 1.64256 8.95249 0.5 10.3847 0.5C11.1218 0.5 11.7965 0.807776 12.2691 1.30326L12.4584 1.50167L12.7274 1.44876C12.8723 1.42027 13.0155 1.38742 13.157 1.35024C13.0981 1.39173 13.0373 1.43094 12.9747 1.46773L13.2902 2.3949C13.3446 2.3881 13.3988 2.3807 13.4528 2.37271C13.3619 2.44559 13.2684 2.51564 13.1724 2.58276L12.9453 2.74146L12.9594 3.01815C12.9657 3.14166 12.97 3.26171 12.97 3.384C12.97 7.1619 10.0495 11.5 4.7175 11.5C3.77192 11.5 2.86707 11.3459 2.02483 11.0601C3.07786 10.8573 4.04381 10.4114 4.85385 9.78751L5.97796 8.92169L4.55939 8.8915Z" fill="#4F4F4F" stroke="#4F4F4F"/>
</svg>
